<svg width="142" height="57" xmlns="http://www.w3.org/2000/svg" xmlns:xlink="http://www.w3.org/1999/xlink" xml:space="preserve" overflow="hidden"><g transform="translate(-304 -340)"><g><path d="M116.611 27.5573 116.611 35.0958 116.627 35.3763 116.336 35.3579 112.682 35.3579 112.394 35.3763 112.41 35.0958 112.41 28.2223C112.41 26.2161 111.257 25.2599 109.832 25.2599 108.412 25.2599 107.262 26.2161 107.262 28.2223L107.262 35.0958 107.275 35.3763 106.987 35.3579 103.333 35.3579 103.041 35.3763 103.063 35.0958 103.063 28.2223C103.063 24.4793 106.093 21.446 109.831 21.446 111.424 21.446 112.888 22.0014 114.043 22.9179L114.126 23.1694 114.205 22.9229C114.326 22.7922 114.444 22.6715 114.577 22.5536L114.823 22.4932 114.593 22.3937C113.595 21.2755 112.976 19.8058 112.976 18.1947L112.976 3.16518 112.963 2.87738 113.255 2.89024 116.906 2.89024 117.194 2.87738 117.185 3.16518 117.185 18.1953C117.185 19.8271 118.117 20.6027 119.278 20.6027 120.431 20.6027 121.368 19.8276 121.368 18.1953L121.368 3.16518 121.352 2.87738 121.646 2.89024 125.302 2.89024 125.588 2.87738 125.567 3.16518 125.567 18.1953C125.567 19.8064 124.954 21.2755 123.959 22.3943L123.726 22.4938 123.979 22.5541C124.106 22.672 124.225 22.7922 124.346 22.9235L124.428 23.1699 124.504 22.9185C125.667 22.0014 127.128 21.4465 128.718 21.4465 132.461 21.4465 135.49 24.4798 135.49 28.2228L135.49 35.0964 135.51 35.3769 135.219 35.3584 131.566 35.3584 131.274 35.3769 131.292 35.0964 131.292 28.2228C131.292 26.2166 130.139 25.2605 128.718 25.2605 127.293 25.2605 126.14 26.2166 126.14 28.2228L126.14 35.0964 126.156 35.3769 125.871 35.3584 122.214 35.3584 121.925 35.3769 121.946 35.0964 121.946 27.5578C121.946 25.4807 120.747 24.4904 119.278 24.4904 117.803 24.4899 116.611 25.4801 116.611 27.5573" fill="#0059AB" fill-rule="nonzero" fill-opacity="1" transform="matrix(1.01642 0 0 1 304 340)"/><path d="M34.224 53.908 38.0928 53.908 38.0928 53.4945 36.6577 53.1614 36.6577 39.9961 32.6839 39.9961 32.6839 40.4499 34.224 40.8768 34.224 45.3195C33.5484 44.7534 32.5263 44.2896 31.1673 44.2896 28.7548 44.2896 26.9739 46.4114 26.9739 49.3553 26.9739 52.3679 28.6006 54.1226 31.1857 54.1226 32.4481 54.1226 33.4936 53.6325 34.2246 52.9698L34.2246 53.908M34.224 52.1164C33.687 52.5411 33.027 52.9021 32.0234 52.9021 30.6979 52.9021 29.564 51.941 29.564 49.3318 29.564 46.6467 30.4911 45.4027 32.0055 45.4027 33.0192 45.4027 33.7345 45.7665 34.224 46.3147L34.224 52.1164Z" fill="#051922" fill-rule="nonzero" fill-opacity="1" transform="matrix(1.01642 0 0 1 304 340)"/><path d="M70.5939 39.9961 70.5939 40.4208 69.1427 40.8081 69.1427 53.1011 70.5939 53.4727 70.5939 53.908 64.5542 53.908 64.5542 53.4599 66.4894 53.1011 66.4894 43.3071 61.9791 53.908 60.9285 53.908 56.4965 43.2658 56.4965 53.1011 58.3591 53.4129 58.3591 53.908 53.9902 53.908 53.9902 53.4727 55.2313 53.1195 55.2313 40.7874 53.9902 40.4208 53.9902 39.9961 57.8796 39.9961 62.2043 50.6445 66.647 39.9961 70.5939 39.9961" fill="#051922" fill-rule="nonzero" fill-opacity="1" transform="matrix(1.01642 0 0 1 304 340)"/><path d="M76.6656 44.2896C73.9284 44.2896 71.4685 46.194 71.4685 49.2066 71.4685 52.1293 73.9491 54.1232 76.6656 54.1232 79.3976 54.1232 81.8783 52.1299 81.8783 49.2066 81.8788 46.194 79.3976 44.2896 76.6656 44.2896M76.6656 44.9786C78.3314 44.9786 79.2065 46.8384 79.2065 49.1876 79.2065 51.5163 78.332 53.4414 76.6656 53.4414 75.0209 53.4414 74.1224 51.5163 74.1224 49.1876 74.1224 46.859 75.0209 44.9786 76.6656 44.9786Z" fill="#051922" fill-rule="nonzero" fill-opacity="1" transform="matrix(1.01642 0 0 1 304 340)"/><path d="M126.981 47.1971 126.981 48.8004 124.818 48.9071C122.733 48.9703 121.428 50.1047 121.428 51.666 121.428 53.2397 122.603 54.1226 124.161 54.1226 125.442 54.1226 126.361 53.4939 126.982 53.0536L126.982 53.9075 130.523 53.9075 130.523 53.4939 129.37 53.1609 129.37 46.7909C129.37 45.4027 128.459 44.289 126.385 44.289 124.265 44.289 122.943 44.8914 122.196 45.2139L122.196 47.4117 123.249 47.4117 123.6 45.5782C123.844 45.4782 124.501 45.2507 125.549 45.3368 126.809 45.4419 126.958 46.3198 126.981 47.1971M126.981 52.3472C126.486 52.6691 126.062 52.991 125.289 52.991 124.053 53.0094 123.71 52.2422 123.71 51.3408 123.71 50.4238 124.33 49.8007 125.465 49.6174L126.982 49.4425 126.982 52.3472Z" fill="#051922" fill-rule="nonzero" fill-opacity="1" transform="matrix(1.01642 0 0 1 304 340)"/><path d="M136.912 53.4945 136.912 53.908 131.62 53.908 131.62 53.4945 133.056 53.1614 133.056 40.8109 131.62 40.4471 131.62 39.9961 135.49 39.9961 135.49 53.1614 136.912 53.4945" fill="#051922" fill-rule="nonzero" fill-opacity="1" transform="matrix(1.01642 0 0 1 304 340)"/><path d="M14.4137 22.2999 12.3416 21.8964 12.3416 21.446 17.1531 21.446 17.1531 21.8701 15.6784 22.2999 15.6784 30.7185C15.6784 34.2184 13.7689 35.6406 9.86324 35.6406 5.85312 35.6406 4.22638 34.1033 4.22638 30.9365L4.22638 22.2367 2.79412 21.8701 2.79412 21.446 8.94676 21.446 8.94676 21.9176 6.85676 22.2792 6.85676 30.8024C6.85676 33.3852 7.73691 34.656 10.4243 34.656 13.3397 34.656 14.4137 33.3383 14.4137 30.5744L14.4137 22.2999" fill="#051922" fill-rule="nonzero" fill-opacity="1" transform="matrix(1.01642 0 0 1 304 340)"/><path d="M22.6933 34.9516 22.6933 35.3579 17.5018 35.3579 17.5018 34.9516 18.9106 34.6113 18.9106 26.6592 17.6298 26.2926 17.6298 25.8523 21.3493 25.8523 21.3493 27.3036C21.7762 26.942 23.1224 25.745 24.8514 25.745 26.6486 25.745 27.5651 26.7459 27.5651 28.5006L27.5651 34.5884 28.9325 34.9365 28.9325 35.3584 23.8925 35.3584 23.8925 34.9365 25.1521 34.6119 25.1521 28.7777C25.1521 27.8557 24.8721 27.0459 23.7221 27.0459 22.6927 27.0459 21.6449 27.7713 21.3487 27.9658L21.3487 34.6113 22.6933 34.9516" fill="#051922" fill-rule="nonzero" fill-opacity="1" transform="matrix(1.01642 0 0 1 304 340)"/><path d="M33.6479 34.6113 35.0595 34.9516 35.0595 35.3573 29.7791 35.3573 29.7791 34.9516 31.2142 34.6113 31.2142 26.6587 29.9311 26.2921 29.9311 25.8517 33.6479 25.8517 33.6479 34.6113" fill="#051922" fill-rule="nonzero" fill-opacity="1" transform="matrix(1.01642 0 0 1 304 340)"/><path d="M33.7786 22.5776C33.7786 23.3085 33.1394 23.9031 32.3693 23.9031 31.6205 23.9031 30.9577 23.3085 30.9577 22.5776 30.9577 21.8522 31.6205 21.2314 32.3693 21.2314 33.1399 21.2314 33.7786 21.8522 33.7786 22.5776" fill="#051922" fill-rule="nonzero" fill-opacity="1" transform="matrix(1.01642 0 0 1 304 340)"/><path d="M75.6261 34.6113 77.0405 34.9516 77.0405 35.3573 71.7546 35.3573 71.7546 34.9516 73.1902 34.6113 73.1902 26.6587 71.9094 26.2921 71.9094 25.8517 75.6261 25.8517 75.6261 34.6113" fill="#051922" fill-rule="nonzero" fill-opacity="1" transform="matrix(1.01642 0 0 1 304 340)"/><path d="M75.7491 22.5776C75.7491 23.3085 75.1098 23.9031 74.3453 23.9031 73.5959 23.9031 72.9309 23.3085 72.9309 22.5776 72.9309 21.8522 73.5959 21.2314 74.3453 21.2314 75.1098 21.2314 75.7491 21.8522 75.7491 22.5776" fill="#051922" fill-rule="nonzero" fill-opacity="1" transform="matrix(1.01642 0 0 1 304 340)"/><path d="M35.8323 26.5117 35.1461 26.234 35.1461 25.8517 39.7642 25.8517 39.7642 26.234 38.2867 26.6011 40.4085 32.3872 42.5091 26.5542 41.2255 26.234 41.2255 25.8517 44.3901 25.8517 44.3901 26.234 43.6201 26.6011 40 35.5093 39.2138 35.5093 35.8323 26.5117" fill="#051922" fill-rule="nonzero" fill-opacity="1" transform="matrix(1.01642 0 0 1 304 340)"/><path d="M47.2061 30.0166 53.49 30.0166C53.4246 27.3896 52.0572 25.7444 49.3016 25.7444 46.5852 25.7444 44.579 28.0915 44.579 30.6582 44.579 33.6261 46.5198 35.5697 49.3229 35.5697 51.7169 35.5697 52.9536 34.6314 53.6817 34.0972L53.2754 33.4556C52.72 33.8016 51.604 34.5509 49.7711 34.4409 47.9336 34.3123 47.0116 32.3872 47.2061 30.0166M51.0955 29.2673 47.3128 29.2673C47.5274 27.6433 48.1667 26.4435 49.3011 26.4435 50.5847 26.4435 51.0066 27.9417 51.0955 29.2673Z" fill="#051922" fill-rule="nonzero" fill-opacity="1" transform="matrix(1.01642 0 0 1 304 340)"/><path d="M69.8423 26.2317 69.63 28.5626 68.7576 28.5626 68.5431 26.9806C68.2206 26.8101 67.7942 26.4435 66.856 26.4435 66.0831 26.4435 65.4857 26.852 65.4857 27.6824 65.4857 28.6699 66.5754 29.0549 67.6651 29.5472 68.7129 29.9926 70.4235 30.6369 70.4235 32.324 70.4235 34.2441 68.8415 35.5697 66.9426 35.5697 65.1845 35.5697 64.1636 35.1662 63.8596 35.0561L63.6919 32.476 64.5877 32.3872 65.1007 34.1424C65.36 34.3336 66.0669 34.889 66.9186 34.8706 68.1368 34.8706 68.7129 34.2291 68.7129 33.307 68.7129 32.2173 67.1963 31.7484 66.1932 31.2796 65.2527 30.8258 63.7992 30.4257 63.7992 28.4765 63.7992 26.8789 65.1247 25.7444 66.9191 25.7444 68.4592 25.7444 69.4182 26.106 69.8423 26.2317" fill="#051922" fill-rule="nonzero" fill-opacity="1" transform="matrix(1.01642 0 0 1 304 340)"/><path d="M93.2308 22.7084 92.3065 21.3409 89.0402 23.9081 89.5744 24.6732 93.2308 22.7084" fill="#051922" fill-rule="nonzero" fill-opacity="1" transform="matrix(1.01642 0 0 1 304 340)"/><path d="M87.5442 30.0166 93.8253 30.0166C93.76 27.3896 92.3925 25.7444 89.6342 25.7444 86.9228 25.7444 84.9144 28.0915 84.9144 30.6582 84.9144 33.6261 86.8602 35.5697 89.6632 35.5697 92.0516 35.5697 93.2962 34.6314 94.0193 34.0972L93.6108 33.4556C93.0558 33.8016 91.9472 34.5509 90.1064 34.4409 88.2695 34.3123 87.3531 32.3872 87.5442 30.0166M91.4314 29.2673 87.6515 29.2673C87.8633 27.6433 88.5048 26.4435 89.6342 26.4435 90.9206 26.4435 91.3475 27.9417 91.4314 29.2673Z" fill="#051922" fill-rule="nonzero" fill-opacity="1" transform="matrix(1.01642 0 0 1 304 340)"/><path d="M61.5287 25.7573C60.1613 25.7573 59.1766 26.8576 58.6211 28.0909L58.5792 28.0909 58.5792 25.8517 54.7049 25.8517 54.7049 26.2446 56.1405 26.6587 56.1405 34.6107 54.7049 34.9511 54.7049 35.3573 60.6486 35.3573 60.6486 34.8885 58.5792 34.5509 58.5792 29.1443C59.1425 27.9026 59.978 27.3974 60.51 27.3974 60.9106 27.3974 61.0599 27.4734 61.3717 27.7434 61.4818 27.8322 61.888 27.9479 62.1367 27.8372 62.5977 27.6433 62.7291 27.298 62.7291 26.7973 62.7279 26.2502 62.1937 25.7573 61.5287 25.7573" fill="#051922" fill-rule="nonzero" fill-opacity="1" transform="matrix(1.01642 0 0 1 304 340)"/><path d="M88.0337 53.4945 88.0337 53.908 82.8394 53.908 82.8394 53.4945 84.2466 53.1614 84.2466 45.2144 82.9685 44.845 82.9685 44.4024 86.6875 44.4024 86.6875 45.8537C87.115 45.4871 88.4584 44.2896 90.1874 44.2896 91.9846 44.2896 92.9033 45.2982 92.9033 47.0501L92.9033 53.138 94.2707 53.4733 94.2707 53.908 89.2285 53.908 89.2285 53.4733 90.4886 53.1614 90.4886 47.3256C90.4886 46.4064 90.2137 45.5966 89.0558 45.5966 88.0343 45.5966 86.9842 46.3198 86.6881 46.5137L86.6881 53.1614 88.0337 53.4945" fill="#051922" fill-rule="nonzero" fill-opacity="1" transform="matrix(1.01642 0 0 1 304 340)"/><path d="M109.366 44.3052C107.997 44.3052 107.011 45.4083 106.454 46.6444L106.412 46.6444 106.412 44.4024 102.543 44.4024 102.543 44.7953 103.975 45.2144 103.975 53.1614 102.543 53.4945 102.543 53.908 108.481 53.908 108.481 53.442 106.412 53.1016 106.412 47.6978C106.978 46.4511 107.816 45.9454 108.347 45.9454 108.746 45.9454 108.895 46.0214 109.201 46.2963 109.316 46.3824 109.726 46.5003 109.964 46.3851 110.432 46.184 110.56 45.8481 110.56 45.3457 110.561 44.8003 110.031 44.3052 109.366 44.3052" fill="#051922" fill-rule="nonzero" fill-opacity="1" transform="matrix(1.01642 0 0 1 304 340)"/><path d="M84.1706 34.2967C83.8168 34.5325 83.4474 34.7029 82.9048 34.7029 82.0515 34.7029 81.7738 34.0821 81.7738 32.6699L81.7738 26.6821 84.2097 26.3234 84.2097 25.8517 81.7738 25.8517 81.7738 21.446 80.9746 21.446C80.8176 23.9685 79.9268 25.6215 77.6742 25.8517L77.3049 25.8517 77.3049 26.3234 79.3351 26.6821 79.3351 32.7985C79.3351 34.7342 79.8039 35.5697 81.6246 35.5697 82.9316 35.5697 83.985 35.0824 84.4114 34.6761L84.1706 34.2967" fill="#051922" fill-rule="nonzero" fill-opacity="1" transform="matrix(1.01642 0 0 1 304 340)"/><path d="M101.43 52.8468C101.073 53.0776 100.704 53.2553 100.17 53.2553 99.308 53.2553 99.0358 52.6294 99.0358 51.2201L99.0358 45.2323 101.472 44.8713 101.472 44.4024 99.0358 44.4024 99.0358 39.9961 98.2395 39.9961C98.0769 42.5136 97.1889 44.1716 94.9391 44.4024L94.5669 44.4024 94.5669 44.8713 96.5943 45.2323 96.5943 51.3458C96.5943 53.2894 97.066 54.1226 98.8838 54.1226 100.191 54.1226 101.239 53.6325 101.668 53.2263L101.43 52.8468" fill="#051922" fill-rule="nonzero" fill-opacity="1" transform="matrix(1.01642 0 0 1 304 340)"/><path d="M41.4301 48.5668 47.714 48.5668C47.6514 45.9398 46.284 44.2896 43.5229 44.2896 40.8142 44.2896 38.8025 46.6444 38.8025 49.2066 38.8025 52.179 40.7461 54.1232 43.5435 54.1232 45.9375 54.1232 47.1792 53.1827 47.9024 52.6479L47.4961 52.0069C46.9406 52.3472 45.8325 53.1016 43.9939 52.9916 42.1582 52.863 41.2389 50.9373 41.4301 48.5668M45.32 47.8202 41.5374 47.8202C41.7497 46.194 42.394 44.9937 43.5229 44.9937 44.8065 44.9942 45.2362 46.4952 45.32 47.8202Z" fill="#051922" fill-rule="nonzero" fill-opacity="1" transform="matrix(1.01642 0 0 1 304 340)"/><path d="M113.41 48.5646 119.692 48.5646C119.632 45.9398 118.259 44.2896 115.509 44.2896 112.792 44.2896 110.783 46.6444 110.783 49.2066 110.783 52.179 112.724 54.1232 115.527 54.1232 117.918 54.1232 119.157 53.1827 119.888 52.6479L119.477 52.0069C118.925 52.3472 117.814 53.1016 115.975 52.9916 114.136 52.863 113.217 50.9345 113.41 48.5646M119.095 41.2591 118.178 39.8916 114.909 42.4561 115.443 43.2211 119.095 41.2591ZM117.3 47.8202 113.521 47.8202C113.732 46.194 114.372 44.9937 115.509 44.9937 116.787 44.9942 117.214 46.4952 117.3 47.8202Z" fill="#051922" fill-rule="nonzero" fill-opacity="1" transform="matrix(1.01642 0 0 1 304 340)"/></g></g></svg>